<svg width="45" height="45" viewBox="0 0 45 45" fill="none" xmlns="http://www.w3.org/2000/svg">
<g clip-path="url(#clip0_1_525)">
<path d="M22.5 0C18.0499 0 13.6998 1.3196 9.99968 3.79193C6.29957 6.26427 3.41569 9.77829 1.71272 13.8896C0.00974893 18.001 -0.435826 22.525 0.432341 26.8895C1.30051 31.2541 3.44343 35.2632 6.59011 38.4099C9.73679 41.5566 13.7459 43.6995 18.1105 44.5677C22.475 45.4358 26.999 44.9903 31.1104 43.2873C35.2217 41.5843 38.7357 38.7004 41.2081 35.0003C43.6804 31.3002 45 26.9501 45 22.5C44.9936 16.5346 42.621 10.8154 38.4028 6.59722C34.1846 2.37905 28.4654 0.00645203 22.5 0ZM22.5 41.25C18.7916 41.25 15.1665 40.1503 12.0831 38.0901C8.99965 36.0298 6.59641 33.1014 5.17727 29.6753C3.75813 26.2492 3.38681 22.4792 4.11029 18.8421C4.83376 15.2049 6.61952 11.864 9.24176 9.24175C11.864 6.61951 15.2049 4.83375 18.8421 4.11028C22.4792 3.3868 26.2492 3.75812 29.6753 5.17726C33.1014 6.5964 36.0298 8.99964 38.0901 12.0831C40.1503 15.1665 41.25 18.7916 41.25 22.5C41.2445 27.4711 39.2674 32.2371 35.7522 35.7522C32.2371 39.2673 27.4711 41.2445 22.5 41.25Z" fill="#232323"/>
<path d="M33.7501 20.6251H15.7763L20.0757 16.3257C20.2548 16.1528 20.3976 15.9459 20.4959 15.7171C20.5942 15.4883 20.6459 15.2423 20.6481 14.9933C20.6502 14.7444 20.6028 14.4975 20.5085 14.2671C20.4142 14.0366 20.275 13.8273 20.099 13.6512C19.9229 13.4752 19.7136 13.336 19.4831 13.2417C19.2527 13.1474 19.0058 13.1 18.7568 13.1021C18.5079 13.1043 18.2618 13.156 18.0331 13.2543C17.8043 13.3525 17.5974 13.4954 17.4245 13.6745L9.92446 21.1745C9.57295 21.5261 9.37549 22.0029 9.37549 22.5001C9.37549 22.9973 9.57295 23.4741 9.92446 23.8257L17.4245 31.3257C17.7781 31.6673 18.2517 31.8563 18.7433 31.852C19.235 31.8477 19.7052 31.6505 20.0529 31.3029C20.4005 30.9552 20.5977 30.485 20.602 29.9933C20.6062 29.5017 20.4173 29.0281 20.0757 28.6745L15.7763 24.3751H33.7501C34.2474 24.3751 34.7243 24.1775 35.0759 23.8259C35.4275 23.4743 35.6251 22.9974 35.6251 22.5001C35.6251 22.0028 35.4275 21.5259 35.0759 21.1743C34.7243 20.8226 34.2474 20.6251 33.7501 20.6251Z" fill="#232323"/>
</g>
<defs>
<clipPath id="clip0_1_525">
<rect width="45" height="45" fill="white"/>
</clipPath>
</defs>
</svg>
