<svg width="60" height="60" viewBox="0 0 60 60" fill="none" xmlns="http://www.w3.org/2000/svg">
<path d="M57.4157 24.2677C57.4271 24.1614 57.714 23.8859 57.8681 23.7383C58.2819 23.3408 58.797 22.8465 58.7042 22.1315C58.6259 21.5274 58.1196 20.9852 57.1102 20.4249C56.1305 19.8804 55.3998 19.0405 54.6262 18.1504C53.2003 16.5104 51.5839 14.6515 48.0549 14.3637C44.6744 14.0882 43.5738 14.6625 42.5107 15.2182C41.9229 15.5252 41.4154 15.7902 40.4619 15.9051C39.6016 16.0113 38.6012 15.8748 37.5424 15.733C35.2302 15.4224 32.6092 15.0711 29.8723 16.794C28.5149 17.6491 28.7549 18.8426 28.9478 19.8021C29.0341 20.1682 29.0844 20.5417 29.0981 20.9175C29.0981 21.1451 27.9955 21.6296 27.5246 21.8367C26.1368 22.4467 24.236 23.2819 24.4901 25.0871C24.7717 27.0896 26.9052 27.6668 28.7876 28.1758C29.598 28.3952 30.3636 28.6018 30.8907 28.8942C35.0569 31.2031 39.2437 33.2226 42.4662 33.2226C43.5515 33.2226 44.528 32.9932 45.3567 32.4685C46.9302 31.4728 48.7953 31.3269 50.7697 31.1728C52.5671 31.0322 54.426 30.8862 56.052 30.0388C59.0161 28.4944 58.1351 26.2351 57.6614 25.0211C57.5536 24.7792 57.4712 24.5267 57.4157 24.2677ZM57.0405 22.8757C56.6517 23.2486 56.1682 23.7126 56.2248 24.3674C56.2534 24.7001 56.39 25.0503 56.5479 25.4554C57.0224 26.6717 57.5129 27.9294 55.4996 28.9788C54.0895 29.7136 52.4317 29.8438 50.6764 29.981C48.6435 30.1397 46.5415 30.3043 44.7176 31.4588C41.5734 33.4484 34.4934 29.5246 31.4701 27.8483C30.8158 27.4859 29.9822 27.2606 29.0996 27.0219C27.4998 26.5894 25.8455 26.1417 25.6737 24.9202C25.5551 24.0768 26.5654 23.5638 28.0056 22.9311C29.182 22.414 30.2935 21.9255 30.2935 20.9175C30.281 20.4624 30.2227 20.0098 30.1197 19.5663C29.9272 18.6097 29.8745 18.2053 30.5091 17.806C31.906 16.9265 33.2743 16.672 34.6159 16.672C35.5514 16.672 36.4737 16.7957 37.3833 16.9177C38.5201 17.0706 39.5936 17.2142 40.6055 17.0922C41.7756 16.9504 42.4306 16.6084 43.064 16.2775C44.0185 15.779 44.9189 15.3045 47.958 15.5555C51.0014 15.803 52.324 17.324 53.7242 18.9348C54.5316 19.8634 55.3665 20.8235 56.5301 21.4696C57.4709 21.9925 57.5173 22.2733 57.5188 22.2849C57.5339 22.4017 57.2129 22.7099 57.0405 22.8757Z" fill="black"/>
<path d="M32.4901 26.0091C31.9249 25.7078 31.3294 25.4672 30.7136 25.2912C30.562 25.2449 30.3983 25.2607 30.2584 25.3351C30.1185 25.4095 30.0138 25.5364 29.9675 25.688C29.9212 25.8395 29.937 26.0032 30.0114 26.1432C30.0858 26.2831 30.2127 26.3877 30.3642 26.434C30.8997 26.5863 31.4178 26.794 31.9102 27.0539C31.9986 27.1033 32.0982 27.1293 32.1995 27.1291C32.332 27.1293 32.4608 27.0855 32.5656 27.0045C32.6705 26.9235 32.7454 26.8099 32.7787 26.6817C32.812 26.5534 32.8017 26.4178 32.7494 26.296C32.6971 26.1743 32.606 26.0733 32.4901 26.0091Z" fill="black"/>
<path d="M51.9345 27.7581C51.4743 27.8089 50.9975 27.8462 50.513 27.8842C49.7686 27.9425 48.999 28.0026 48.1986 28.1159C48.0428 28.1395 47.9026 28.2237 47.8086 28.3501C47.7145 28.4765 47.6742 28.6349 47.6964 28.7909C47.7185 28.9469 47.8014 29.0879 47.9269 29.1831C48.0524 29.2783 48.2105 29.3202 48.3667 29.2995C49.1296 29.1909 49.8801 29.1325 50.6061 29.0759C51.1037 29.0368 51.5928 28.9983 52.0652 28.9464C52.2221 28.9281 52.3653 28.8486 52.4637 28.7251C52.5621 28.6016 52.6076 28.4442 52.5904 28.2872C52.5731 28.1303 52.4944 27.9866 52.3715 27.8874C52.2487 27.7883 52.0916 27.7418 51.9345 27.7581Z" fill="black"/>
<path d="M54.1916 27.268C54.0024 27.3443 53.8089 27.4094 53.612 27.4629C53.4727 27.5014 53.352 27.5891 53.2724 27.7098C53.1928 27.8305 53.1596 27.976 53.179 28.1192C53.1984 28.2625 53.2691 28.3939 53.378 28.489C53.4868 28.5841 53.6265 28.6366 53.7711 28.6366C53.825 28.6366 53.8787 28.6293 53.9307 28.615C54.1718 28.5487 54.4089 28.4688 54.641 28.3757C54.7137 28.3462 54.78 28.3027 54.8359 28.2476C54.8918 28.1925 54.9363 28.1269 54.9668 28.0546C54.9974 27.9823 55.0134 27.9047 55.014 27.8262C55.0146 27.7477 54.9997 27.6699 54.9702 27.5971C54.9407 27.5244 54.8971 27.4582 54.842 27.4023C54.7869 27.3464 54.7214 27.3019 54.6491 27.2713C54.5768 27.2407 54.4991 27.2247 54.4207 27.2241C54.3422 27.2236 54.2643 27.2385 54.1916 27.268Z" fill="black"/>
<path d="M39.4031 34.8474C38.2339 34.2603 37.5296 34.2439 36.9083 34.2299C36.2574 34.2147 35.6952 34.2019 34.4616 33.4893C33.1804 32.7499 32.5483 32.0343 31.8792 31.2773C31.176 30.4818 30.4489 29.6588 28.9987 28.8213C27.5009 27.9569 26.6943 27.9382 25.9827 27.9219C25.3319 27.9073 24.77 27.8939 23.5366 27.1818C22.2554 26.4424 21.6234 25.7268 20.9544 24.9698C20.3404 24.2752 19.7055 23.5568 18.5819 22.8249C18.3496 22.6731 18.0797 22.5889 17.8024 22.5816C17.525 22.5743 17.2511 22.6441 17.0111 22.7834L15.2428 23.8045L15.242 23.8048L13.0071 25.0953L13.0059 25.0961L11.2235 26.1254C10.9958 26.2573 10.8067 26.4467 10.675 26.6745C10.5434 26.9024 10.4739 27.1609 10.4734 27.424V28.446C10.4726 28.697 10.5353 28.9442 10.6557 29.1645C10.7761 29.3848 10.9502 29.5711 11.1618 29.7061C12.1892 30.3627 12.7552 31.003 13.3543 31.6812C13.7412 32.1346 14.1563 32.5634 14.5969 32.9648C14.4462 32.9224 14.2853 32.8725 14.1094 32.8123C12.7104 32.3325 11.9529 31.7524 11.1509 31.1378C10.4148 30.5734 9.65374 29.9903 8.40997 29.4884C8.15286 29.3841 7.87184 29.3534 7.59826 29.3995C7.32468 29.4457 7.06932 29.567 6.86067 29.7499L5.32176 31.0911L5.32087 31.0917L3.37556 32.7872L3.37542 32.7874L1.82261 34.1406C1.62461 34.314 1.4755 34.5362 1.39017 34.7852C1.30484 35.0341 1.28626 35.3011 1.33629 35.5595L1.53255 36.5616C1.57992 36.8082 1.6889 37.0388 1.84934 37.232C2.00979 37.4252 2.21648 37.5746 2.4502 37.6665C3.58451 38.1135 4.263 38.6336 4.98132 39.1839C5.82419 39.8295 6.69552 40.4972 8.27927 41.0405C9.91509 41.6008 10.7105 41.4637 11.412 41.344C12.0533 41.2337 12.6073 41.1374 13.9547 41.6003C15.3542 42.08 16.1118 42.6602 16.914 43.2748C17.757 43.9203 18.6285 44.5885 20.2124 45.1313C21.8489 45.6922 22.644 45.5562 23.3458 45.4349C23.9156 45.3368 24.4077 45.2528 25.4506 45.5528C25.5883 45.5925 25.7308 45.6128 25.8741 45.6129C26.2351 45.6131 26.5839 45.4825 26.8559 45.2452L29.1711 43.2272L30.3661 42.1857L30.3666 42.1851L31.1984 41.4601C31.5527 41.556 31.895 41.6915 32.2189 41.8641C32.4329 41.9742 32.67 42.0319 32.9107 42.0322C33.1727 42.0321 33.4301 41.9631 33.657 41.832L35.4532 40.7949L35.4547 40.7943L37.6894 39.5039L37.6903 39.5032L39.4732 38.4737C39.7011 38.3418 39.8902 38.1524 40.0219 37.9244C40.1535 37.6964 40.2229 37.4378 40.2232 37.1745V36.1859C40.2227 35.9089 40.1459 35.6375 40.0012 35.4014C39.8565 35.1653 39.6496 34.9736 39.4031 34.8474ZM28.4157 42.3L28.3799 42.1174C28.3101 41.7498 28.1355 41.4102 27.8773 41.1394C27.619 40.8687 27.2881 40.6783 26.9242 40.5911C26.5322 40.4961 26.1306 40.4466 25.7273 40.4435C25.3807 40.448 25.0352 40.4841 24.6952 40.5514C24.0537 40.6617 23.4992 40.7569 22.1521 40.2946C20.7525 39.8149 19.995 39.2347 19.1929 38.6201C18.3499 37.974 17.4783 37.3063 15.8941 36.763C14.2578 36.2027 13.4629 36.3387 12.7615 36.4601C12.12 36.5698 11.5656 36.6655 10.2187 36.2033C8.8192 35.7235 8.06177 35.1433 7.25969 34.5288C6.60031 34.0233 5.92327 33.505 4.90129 33.0428L5.84114 32.224C7.03951 32.6798 7.74003 33.2168 8.47835 33.7823C9.32112 34.4278 10.1927 35.0955 11.7765 35.6389C13.4124 36.1986 14.2074 36.062 14.9093 35.9424C15.5507 35.8315 16.1049 35.7358 17.4518 36.1986C18.8514 36.6784 19.6091 37.2585 20.4112 37.8731C21.2541 38.5192 22.1258 39.1869 23.7098 39.7303C25.3458 40.2918 26.1413 40.1552 26.8431 40.0338C27.4226 39.9049 28.0243 39.9141 28.5996 40.0607C28.7389 40.0955 28.8652 40.1698 28.9632 40.2747C29.0612 40.3796 29.1269 40.5106 29.1522 40.6519L29.3206 41.5116L28.4157 42.3ZM36.793 38.6412L35.7535 39.2411V39.0555C35.7554 38.6814 35.6492 38.3146 35.4478 37.9992C35.2464 37.6839 34.9582 37.4334 34.6179 37.2778C33.9362 36.9586 33.1908 36.7987 32.4382 36.8103C31.7873 36.7957 31.2253 36.7822 29.9917 36.0702C28.7105 35.3307 28.0784 34.6152 27.4092 33.8582C26.7061 33.0626 25.979 32.2397 24.5287 31.4022C23.031 30.5378 22.2244 30.5191 21.5127 30.5028C20.8618 30.4875 20.2999 30.4748 19.0667 29.7627C17.7858 29.0232 17.1541 28.3082 16.485 27.5513C15.9348 26.9285 15.37 26.2888 14.4553 25.6392L15.5352 25.0159C16.6235 25.6935 17.208 26.3548 17.8237 27.0516C18.5269 27.8477 19.2538 28.6701 20.7039 29.5076C22.2017 30.372 23.0083 30.3907 23.7199 30.407C24.3708 30.4223 24.9327 30.4351 26.166 31.1471C27.4472 31.8866 28.0793 32.6022 28.7485 33.3591C29.4516 34.1547 30.1787 34.9776 31.6289 35.8151C33.1269 36.6801 33.9335 36.6987 34.6452 36.7151C35.2389 36.6998 35.8279 36.8245 36.3644 37.0793C36.4943 37.1402 36.6038 37.2373 36.6798 37.359C36.7559 37.4807 36.7951 37.6217 36.7929 37.7651L36.793 38.6412Z" fill="black"/>
<path d="M41.357 17.603C37.2907 17.603 33.9824 19.9691 33.9824 22.8769C33.9824 25.4163 37.2217 27.406 41.357 27.406C45.4923 27.406 48.7316 25.4163 48.7316 22.8769C48.7315 19.9691 45.4234 17.603 41.357 17.603ZM36.9846 21.1487C37.1681 20.9851 37.365 20.8371 37.5732 20.7063C37.7071 20.6229 37.8685 20.5958 38.0222 20.6309C38.176 20.666 38.3097 20.7605 38.3941 20.8937C38.4785 21.0269 38.5068 21.1881 38.4729 21.3422C38.4389 21.4962 38.3454 21.6306 38.2128 21.716C38.0609 21.8112 37.9172 21.919 37.7833 22.0382C37.6652 22.1429 37.5104 22.1967 37.3527 22.1877C37.1951 22.1788 37.0474 22.1078 36.9419 21.9903C36.8365 21.8729 36.7817 21.7184 36.7897 21.5607C36.7977 21.403 36.8678 21.2549 36.9846 21.1487ZM40.5316 24.6897C40.5098 24.8306 40.4384 24.9592 40.3302 25.0521C40.2221 25.145 40.0842 25.1961 39.9416 25.1963C39.911 25.1963 39.8804 25.1939 39.8501 25.1893C38.5137 24.9838 37.3053 24.4848 36.6176 23.8539C36.5022 23.7463 36.434 23.5976 36.4278 23.44C36.4217 23.2824 36.478 23.1288 36.5846 23.0125C36.6912 22.8963 36.8394 22.8269 36.9969 22.8194C37.1544 22.8119 37.3086 22.867 37.4257 22.9726C37.8272 23.3415 38.7227 23.8067 40.0317 24.008C40.1883 24.0321 40.329 24.1175 40.4227 24.2453C40.5165 24.3732 40.5556 24.533 40.5316 24.6897Z" fill="black"/>
</svg>
