<svg width="60" height="60" viewBox="0 0 60 60" fill="none" xmlns="http://www.w3.org/2000/svg">
<g clip-path="url(#clip0_23_1263)">
<path d="M10 7.5H50C50.663 7.5 51.2989 7.76339 51.7678 8.23223C52.2366 8.70107 52.5 9.33696 52.5 10V50C52.5 50.663 52.2366 51.2989 51.7678 51.7678C51.2989 52.2366 50.663 52.5 50 52.5H10C9.33696 52.5 8.70107 52.2366 8.23223 51.7678C7.76339 51.2989 7.5 50.663 7.5 50V10C7.5 9.33696 7.76339 8.70107 8.23223 8.23223C8.70107 7.76339 9.33696 7.5 10 7.5ZM12.5 12.5V47.5H47.5V12.5H12.5ZM22.5 17.5H31.25C33.5706 17.5 35.7962 18.4219 37.4372 20.0628C39.0781 21.7038 40 23.9294 40 26.25C40 28.5706 39.0781 30.7962 37.4372 32.4372C35.7962 34.0781 33.5706 35 31.25 35H27.5V42.5H22.5V17.5ZM27.5 22.5V30H31.25C32.2446 30 33.1984 29.6049 33.9017 28.9017C34.6049 28.1984 35 27.2446 35 26.25C35 25.2554 34.6049 24.3016 33.9017 23.5983C33.1984 22.8951 32.2446 22.5 31.25 22.5H27.5Z" fill="black"/>
</g>
<defs>
<clipPath id="clip0_23_1263">
<rect width="60" height="60" fill="white"/>
</clipPath>
</defs>
</svg>
