<svg width="60" height="60" viewBox="0 0 60 60" fill="none" xmlns="http://www.w3.org/2000/svg">
<g clip-path="url(#clip0_23_1247)">
<path d="M11.25 30C14.7018 30 17.5 27.2018 17.5 23.75C17.5 20.2982 14.7018 17.5 11.25 17.5C7.79822 17.5 5 20.2982 5 23.75C5 27.2018 7.79822 30 11.25 30Z" fill="black"/>
<path d="M22.5 20C25.9518 20 28.75 17.2018 28.75 13.75C28.75 10.2982 25.9518 7.5 22.5 7.5C19.0482 7.5 16.25 10.2982 16.25 13.75C16.25 17.2018 19.0482 20 22.5 20Z" fill="black"/>
<path d="M37.5 20C40.9518 20 43.75 17.2018 43.75 13.75C43.75 10.2982 40.9518 7.5 37.5 7.5C34.0482 7.5 31.25 10.2982 31.25 13.75C31.25 17.2018 34.0482 20 37.5 20Z" fill="black"/>
<path d="M48.75 30C52.2018 30 55 27.2018 55 23.75C55 20.2982 52.2018 17.5 48.75 17.5C45.2982 17.5 42.5 20.2982 42.5 23.75C42.5 27.2018 45.2982 30 48.75 30Z" fill="black"/>
<path d="M43.3501 37.15C41.1626 34.6125 39.3376 32.425 37.1501 29.8875C35.9876 28.5375 34.5251 27.175 32.7876 26.5875C32.5251 26.5 32.2501 26.425 31.9626 26.375C31.3251 26.25 30.6501 26.25 30.0001 26.25C29.3501 26.25 28.6751 26.25 28.0376 26.375C27.7626 26.425 27.4876 26.5 27.2126 26.5875C25.4751 27.175 24.0126 28.5375 22.8501 29.8875C20.6626 32.425 18.8376 34.6125 16.6501 37.15C13.3751 40.4125 9.36255 44.05 10.0876 49.1375C10.8126 51.675 12.6376 54.225 15.9251 54.95C17.7501 55.3125 23.5751 53.8625 29.7751 53.8625C29.8501 53.8625 29.9251 53.875 30.0001 53.875C30.0751 53.875 30.1501 53.8625 30.2251 53.8625C36.4251 53.8625 42.2501 55.3125 44.0751 54.95C47.3501 54.225 49.1751 51.6875 49.9126 49.1375C50.6376 44.05 46.6376 40.4125 43.3501 37.15Z" fill="black"/>
</g>
<defs>
<clipPath id="clip0_23_1247">
<rect width="60" height="60" fill="white"/>
</clipPath>
</defs>
</svg>
