<svg width="60" height="60" viewBox="0 0 60 60" fill="none" xmlns="http://www.w3.org/2000/svg">
<g clip-path="url(#clip0_23_1268)">
<path fill-rule="evenodd" clip-rule="evenodd" d="M31.8174 1.18382L39.5178 17.5325C39.8008 18.1501 40.3732 18.5858 41.0438 18.6942L58.2624 21.3159C59.0408 21.4668 59.6731 22.0336 59.908 22.791C60.1428 23.5483 59.9421 24.3734 59.3857 24.9383L46.9262 37.6639C46.4451 38.1628 46.2289 38.8601 46.3433 39.5437L49.2846 57.5126C49.445 58.2851 49.1476 59.081 48.5198 59.5589C47.8921 60.0368 47.0457 60.1116 46.3438 59.7514L30.9431 51.2676C30.3564 50.9423 29.6435 50.9423 29.0568 51.2676L13.656 59.7514C12.9542 60.1116 12.1078 60.0368 11.48 59.5589C10.8523 59.081 10.5548 58.2851 10.7153 57.5126L13.6566 39.5437C13.771 38.8601 13.5548 38.1628 13.0737 37.6639L0.614214 24.9383C0.0577969 24.3734 -0.142881 23.5483 0.0919582 22.791C0.326798 22.0337 0.959097 21.4669 1.73749 21.3159L18.956 18.6942C19.6267 18.5858 20.199 18.1501 20.4821 17.5325L28.1825 1.18382C28.5005 0.4642 29.2132 0 29.9999 0C30.7867 0 31.4994 0.4642 31.8174 1.18382Z" fill="#F6AB27"/>
<path fill-rule="evenodd" clip-rule="evenodd" d="M17.7397 40.2118C18.0654 38.2282 17.4303 36.2077 16.0283 34.7671L6.27954 24.8097L19.5793 22.7852C21.6118 22.4699 23.3536 21.1628 24.2244 19.2994L29.9999 7.03662L35.7734 19.2958C36.6441 21.1607 38.3867 22.4692 40.4204 22.7852L53.7202 24.8096L43.9694 34.7691C42.5682 36.2103 41.9339 38.2308 42.2601 40.2143L44.52 54.0222L32.9397 47.6431C31.1104 46.6332 28.8908 46.6328 27.0611 47.6421L15.4798 54.0222L17.7397 40.2118Z" fill="#F4CD1E"/>
</g>
<defs>
<clipPath id="clip0_23_1268">
<rect width="60" height="60" fill="white"/>
</clipPath>
</defs>
</svg>
