<svg width="60" height="60" viewBox="0 0 60 60" fill="none" xmlns="http://www.w3.org/2000/svg">
<path d="M41.795 52.7347H20.0942C18.824 52.7316 17.6067 52.2256 16.7085 51.3274C15.8103 50.4292 15.3044 49.2119 15.3013 47.9417V14.1401C15.3013 13.6739 15.4865 13.2268 15.8161 12.8972C16.1458 12.5675 16.5929 12.3823 17.0591 12.3823H44.8325C45.2987 12.3823 45.7458 12.5675 46.0755 12.8972C46.4051 13.2268 46.5903 13.6739 46.5903 14.1401V47.9417C46.5872 49.2123 46.0809 50.43 45.1823 51.3282C44.2836 52.2265 43.0656 52.7322 41.795 52.7347ZM18.8169 15.8979V47.9417C18.8172 48.2804 18.9519 48.6051 19.1914 48.8446C19.4308 49.0841 19.7556 49.2187 20.0942 49.219H41.795C42.1339 49.219 42.4589 49.0845 42.6987 48.845C42.9384 48.6055 43.0732 48.2806 43.0735 47.9417V15.8979H18.8169Z" fill="#DC3545"/>
<path d="M38.3276 15.8978H23.562C23.0958 15.8978 22.6487 15.7126 22.3191 15.3829C21.9894 15.0532 21.8042 14.6061 21.8042 14.1399V10.9454C21.8061 9.55557 22.3591 8.2232 23.342 7.24054C24.3248 6.25788 25.6573 5.70516 27.0472 5.70361H34.8425C36.2323 5.70516 37.5648 6.25788 38.5477 7.24054C39.5306 8.2232 40.0836 9.55557 40.0854 10.9454V14.1399C40.0854 14.6061 39.9003 15.0532 39.5706 15.3829C39.2409 15.7126 38.7938 15.8978 38.3276 15.8978ZM25.3198 12.3821H36.5698V10.9454C36.5692 10.4876 36.387 10.0487 36.0631 9.72509C35.7393 9.40147 35.3003 9.21955 34.8425 9.21924H27.0472C26.5895 9.21986 26.1509 9.40192 25.8273 9.72551C25.5037 10.0491 25.3216 10.4878 25.321 10.9454L25.3198 12.3821Z" fill="#DC3545"/>
<path d="M30.9448 46.0057C30.4786 46.0057 30.0315 45.8205 29.7019 45.4908C29.3722 45.1612 29.187 44.7141 29.187 44.2479V20.8701C29.187 20.4039 29.3722 19.9568 29.7019 19.6272C30.0315 19.2975 30.4786 19.1123 30.9448 19.1123C31.411 19.1123 31.8581 19.2975 32.1878 19.6272C32.5174 19.9568 32.7026 20.4039 32.7026 20.8701V44.2479C32.7026 44.7141 32.5174 45.1612 32.1878 45.4908C31.8581 45.8205 31.411 46.0057 30.9448 46.0057Z" fill="#DC3545"/>
<path d="M24.5977 46.0057C24.1315 46.0057 23.6843 45.8205 23.3547 45.4908C23.025 45.1612 22.8398 44.7141 22.8398 44.2479V20.8701C22.8398 20.4039 23.025 19.9568 23.3547 19.6272C23.6843 19.2975 24.1315 19.1123 24.5977 19.1123C25.0639 19.1123 25.511 19.2975 25.8406 19.6272C26.1703 19.9568 26.3555 20.4039 26.3555 20.8701V44.2479C26.3555 44.7141 26.1703 45.1612 25.8406 45.4908C25.511 45.8205 25.0639 46.0057 24.5977 46.0057Z" fill="#DC3545"/>
<path d="M37.2925 46.0057C36.8263 46.0057 36.3792 45.8205 36.0495 45.4908C35.7199 45.1612 35.5347 44.7141 35.5347 44.2479V20.8701C35.5347 20.4039 35.7199 19.9568 36.0495 19.6272C36.3792 19.2975 36.8263 19.1123 37.2925 19.1123C37.7587 19.1123 38.2058 19.2975 38.5354 19.6272C38.8651 19.9568 39.0503 20.4039 39.0503 20.8701V44.2479C39.0503 44.7141 38.8651 45.1612 38.5354 45.4908C38.2058 45.8205 37.7587 46.0057 37.2925 46.0057Z" fill="#DC3545"/>
<path d="M47.556 15.8979H14.3345C13.8683 15.8979 13.4212 15.7128 13.0915 15.3831C12.7619 15.0534 12.5767 14.6063 12.5767 14.1401C12.5767 13.6739 12.7619 13.2268 13.0915 12.8972C13.4212 12.5675 13.8683 12.3823 14.3345 12.3823H47.556C48.0222 12.3823 48.4693 12.5675 48.7989 12.8972C49.1286 13.2268 49.3138 13.6739 49.3138 14.1401C49.3138 14.6063 49.1286 15.0534 48.7989 15.3831C48.4693 15.7128 48.0222 15.8979 47.556 15.8979Z" fill="#DC3545"/>
</svg>
