<svg width="60" height="60" viewBox="0 0 60 60" fill="none" xmlns="http://www.w3.org/2000/svg">
<path d="M40.6231 35.6601C37.7057 33.0668 33.938 31.6343 30.0346 31.6343C26.1312 31.6343 22.3635 33.0668 19.4461 35.6601C19.1996 35.8734 18.9979 36.1336 18.8528 36.4255C18.7076 36.7174 18.622 37.0352 18.6007 37.3605C18.5794 37.6858 18.623 38.0121 18.7289 38.3204C18.8348 38.6288 19.0009 38.913 19.2176 39.1566C19.4342 39.4001 19.6971 39.5983 19.991 39.7394C20.2848 39.8805 20.6038 39.9619 20.9294 39.9787C21.2549 39.9955 21.5806 39.9475 21.8874 39.8374C22.1943 39.7273 22.4762 39.5574 22.7168 39.3374C24.7332 37.5454 27.337 36.5555 30.0346 36.5555C32.7322 36.5555 35.336 37.5454 37.3524 39.3374C37.8403 39.7712 38.4806 39.9933 39.1323 39.9549C39.784 39.9166 40.3938 39.6209 40.8275 39.133C41.2613 38.645 41.4834 38.0047 41.445 37.353C41.4067 36.7013 41.111 36.0915 40.6231 35.6578V35.6601Z" fill="black"/>
<path d="M30.0328 21.5274C23.4255 21.5183 17.0634 24.0295 12.2438 28.5492C11.9997 28.7678 11.8018 29.0329 11.6616 29.329C11.5214 29.6251 11.4417 29.9462 11.4272 30.2735C11.4127 30.6008 11.4637 30.9277 11.5773 31.235C11.6908 31.5423 11.8645 31.8239 12.0883 32.0632C12.312 32.3024 12.5813 32.4946 12.8803 32.6285C13.1794 32.7623 13.5021 32.8351 13.8296 32.8426C14.1571 32.8501 14.4829 32.7921 14.7877 32.672C15.0925 32.5519 15.3703 32.3722 15.6047 32.1434C19.5181 28.4846 24.6754 26.4493 30.0328 26.4493C35.3902 26.4493 40.5475 28.4846 44.4609 32.1434C44.6954 32.3722 44.9732 32.5519 45.278 32.672C45.5828 32.7921 45.9085 32.8501 46.236 32.8426C46.5636 32.8351 46.8863 32.7623 47.1853 32.6285C47.4843 32.4946 47.7536 32.3024 47.9774 32.0632C48.2011 31.8239 48.3749 31.5423 48.4884 31.235C48.6019 30.9277 48.6529 30.6008 48.6384 30.2735C48.624 29.9462 48.5443 29.6251 48.404 29.329C48.2638 29.0329 48.0659 28.7678 47.8219 28.5492C43.0022 24.0295 36.6402 21.5183 30.0328 21.5274Z" fill="black"/>
<path d="M54.1407 20.6086C47.5058 14.6887 38.9248 11.417 30.0329 11.417C21.141 11.417 12.5599 14.6887 5.92505 20.6086C5.6757 20.8216 5.47143 21.0823 5.32425 21.3753C5.17707 21.6684 5.08995 21.9879 5.06801 22.3151C5.04607 22.6423 5.08976 22.9706 5.19649 23.2807C5.30323 23.5908 5.47086 23.8765 5.68955 24.1208C5.90824 24.3652 6.17357 24.5634 6.46995 24.7038C6.76632 24.8442 7.08777 24.9239 7.4154 24.9383C7.74303 24.9527 8.07023 24.9015 8.37778 24.7877C8.68533 24.6738 8.96702 24.4996 9.2063 24.2754C14.9387 19.1629 22.3513 16.3376 30.0323 16.3376C37.7132 16.3376 45.1259 19.1629 50.8583 24.2754C51.3448 24.7105 51.9843 24.9345 52.636 24.8981C53.2877 24.8618 53.8983 24.568 54.3335 24.0814C54.7686 23.5949 54.9926 22.9554 54.9562 22.3037C54.9198 21.6519 54.6261 21.0414 54.1395 20.6062L54.1407 20.6086Z" fill="black"/>
<path d="M30.0327 49.8525C32.1038 49.8525 33.7827 48.1736 33.7827 46.1025C33.7827 44.0315 32.1038 42.3525 30.0327 42.3525C27.9616 42.3525 26.2827 44.0315 26.2827 46.1025C26.2827 48.1736 27.9616 49.8525 30.0327 49.8525Z" fill="black"/>
</svg>
